<?xml version="1.0" encoding="UTF-8" standalone="no"?>
<!DOCTYPE svg PUBLIC "-//W3C//DTD SVG 1.1//EN"
 "http://www.w3.org/Graphics/SVG/1.1/DTD/svg11.dtd">
<!-- Generated by graphviz version 2.38.0 (20140413.2041)
 -->
<!-- Title: G Pages: 1 -->
<svg width="1094pt" height="1948pt"
 viewBox="0.00 0.00 1093.94 1948.00" xmlns="http://www.w3.org/2000/svg" xmlns:xlink="http://www.w3.org/1999/xlink">
<g id="graph0" class="graph" transform="scale(1 1) rotate(0) translate(4 1944)">
<title>G</title>
<polygon fill="white" stroke="none" points="-4,4 -4,-1944 1089.94,-1944 1089.94,4 -4,4"/>
<g id="clust1" class="cluster"><title>cluster_Global</title>
<path fill="none" stroke="gray" d="M486.408,-638C486.408,-638 1065.94,-638 1065.94,-638 1071.94,-638 1077.94,-644 1077.94,-650 1077.94,-650 1077.94,-1920 1077.94,-1920 1077.94,-1926 1071.94,-1932 1065.94,-1932 1065.94,-1932 486.408,-1932 486.408,-1932 480.408,-1932 474.408,-1926 474.408,-1920 474.408,-1920 474.408,-650 474.408,-650 474.408,-644 480.408,-638 486.408,-638"/>
<text text-anchor="middle" x="776.172" y="-1919.2" font-family="Times,serif" font-size="11.00" fill="gray">Global</text>
</g>
<g id="clust2" class="cluster"><title>cluster_\App</title>
<path fill="none" stroke="gray" d="M494.408,-646C494.408,-646 1057.94,-646 1057.94,-646 1063.94,-646 1069.94,-652 1069.94,-658 1069.94,-658 1069.94,-1892 1069.94,-1892 1069.94,-1898 1063.94,-1904 1057.94,-1904 1057.94,-1904 494.408,-1904 494.408,-1904 488.408,-1904 482.408,-1898 482.408,-1892 482.408,-1892 482.408,-658 482.408,-658 482.408,-652 488.408,-646 494.408,-646"/>
<text text-anchor="middle" x="776.172" y="-1891.2" font-family="Times,serif" font-size="11.00" fill="gray">App</text>
</g>
<g id="clust3" class="cluster"><title>cluster_\App\Exceptions</title>
<path fill="none" stroke="gray" d="M920.437,-1156C920.437,-1156 976.437,-1156 976.437,-1156 982.437,-1156 988.437,-1162 988.437,-1168 988.437,-1168 988.437,-1216 988.437,-1216 988.437,-1222 982.437,-1228 976.437,-1228 976.437,-1228 920.437,-1228 920.437,-1228 914.437,-1228 908.437,-1222 908.437,-1216 908.437,-1216 908.437,-1168 908.437,-1168 908.437,-1162 914.437,-1156 920.437,-1156"/>
<text text-anchor="middle" x="948.437" y="-1215.2" font-family="Times,serif" font-size="11.00" fill="gray">Exceptions</text>
</g>
<g id="clust4" class="cluster"><title>cluster_\App\Providers</title>
<path fill="none" stroke="gray" d="M862.937,-860C862.937,-860 1033.94,-860 1033.94,-860 1039.94,-860 1045.94,-866 1045.94,-872 1045.94,-872 1045.94,-1136 1045.94,-1136 1045.94,-1142 1039.94,-1148 1033.94,-1148 1033.94,-1148 862.937,-1148 862.937,-1148 856.937,-1148 850.937,-1142 850.937,-1136 850.937,-1136 850.937,-872 850.937,-872 850.937,-866 856.937,-860 862.937,-860"/>
<text text-anchor="middle" x="948.437" y="-1135.2" font-family="Times,serif" font-size="11.00" fill="gray">Providers</text>
</g>
<g id="clust5" class="cluster"><title>cluster_\App\Http</title>
<path fill="none" stroke="gray" d="M502.408,-1236C502.408,-1236 1049.94,-1236 1049.94,-1236 1055.94,-1236 1061.94,-1242 1061.94,-1248 1061.94,-1248 1061.94,-1864 1061.94,-1864 1061.94,-1870 1055.94,-1876 1049.94,-1876 1049.94,-1876 502.408,-1876 502.408,-1876 496.408,-1876 490.408,-1870 490.408,-1864 490.408,-1864 490.408,-1248 490.408,-1248 490.408,-1242 496.408,-1236 502.408,-1236"/>
<text text-anchor="middle" x="776.172" y="-1863.2" font-family="Times,serif" font-size="11.00" fill="gray">Http</text>
</g>
<g id="clust6" class="cluster"><title>cluster_\App\Http\Middleware</title>
<path fill="none" stroke="gray" d="M866.437,-1290C866.437,-1290 1030.44,-1290 1030.44,-1290 1036.44,-1290 1042.44,-1296 1042.44,-1302 1042.44,-1302 1042.44,-1512 1042.44,-1512 1042.44,-1518 1036.44,-1524 1030.44,-1524 1030.44,-1524 866.437,-1524 866.437,-1524 860.437,-1524 854.437,-1518 854.437,-1512 854.437,-1512 854.437,-1302 854.437,-1302 854.437,-1296 860.437,-1290 866.437,-1290"/>
<text text-anchor="middle" x="948.437" y="-1511.2" font-family="Times,serif" font-size="11.00" fill="gray">Middleware</text>
</g>
<g id="clust7" class="cluster"><title>cluster_\App\Http\Controllers</title>
<path fill="none" stroke="gray" d="M510.408,-1532C510.408,-1532 1041.94,-1532 1041.94,-1532 1047.94,-1532 1053.94,-1538 1053.94,-1544 1053.94,-1544 1053.94,-1836 1053.94,-1836 1053.94,-1842 1047.94,-1848 1041.94,-1848 1041.94,-1848 510.408,-1848 510.408,-1848 504.408,-1848 498.408,-1842 498.408,-1836 498.408,-1836 498.408,-1544 498.408,-1544 498.408,-1538 504.408,-1532 510.408,-1532"/>
<text text-anchor="middle" x="776.172" y="-1835.2" font-family="Times,serif" font-size="11.00" fill="gray">Controllers</text>
</g>
<g id="clust8" class="cluster"><title>cluster_\App\Http\Controllers\Auth</title>
<path fill="none" stroke="gray" d="M862.937,-1586C862.937,-1586 1033.94,-1586 1033.94,-1586 1039.94,-1586 1045.94,-1592 1045.94,-1598 1045.94,-1598 1045.94,-1808 1045.94,-1808 1045.94,-1814 1039.94,-1820 1033.94,-1820 1033.94,-1820 862.937,-1820 862.937,-1820 856.937,-1820 850.937,-1814 850.937,-1808 850.937,-1808 850.937,-1598 850.937,-1598 850.937,-1592 856.937,-1586 862.937,-1586"/>
<text text-anchor="middle" x="948.437" y="-1807.2" font-family="Times,serif" font-size="11.00" fill="gray">Auth</text>
</g>
<g id="clust9" class="cluster"><title>cluster_\App\Console</title>
<path fill="none" stroke="gray" d="M923.937,-780C923.937,-780 972.937,-780 972.937,-780 978.937,-780 984.937,-786 984.937,-792 984.937,-792 984.937,-840 984.937,-840 984.937,-846 978.937,-852 972.937,-852 972.937,-852 923.937,-852 923.937,-852 917.937,-852 911.937,-846 911.937,-840 911.937,-840 911.937,-792 911.937,-792 911.937,-786 917.937,-780 923.937,-780"/>
<text text-anchor="middle" x="948.437" y="-839.2" font-family="Times,serif" font-size="11.00" fill="gray">Console</text>
</g>
<g id="clust10" class="cluster"><title>cluster_\App\Mail</title>
<path fill="none" stroke="gray" d="M903.437,-700C903.437,-700 993.437,-700 993.437,-700 999.437,-700 1005.44,-706 1005.44,-712 1005.44,-712 1005.44,-760 1005.44,-760 1005.44,-766 999.437,-772 993.437,-772 993.437,-772 903.437,-772 903.437,-772 897.437,-772 891.437,-766 891.437,-760 891.437,-760 891.437,-712 891.437,-712 891.437,-706 897.437,-700 903.437,-700"/>
<text text-anchor="middle" x="948.437" y="-759.2" font-family="Times,serif" font-size="11.00" fill="gray">Mail</text>
</g>
<!-- \\App\\Exceptions\\Handler -->
<g id="node1" class="node"><title>\\App\\Exceptions\\Handler</title>
<polygon fill="none" stroke="black" points="980.437,-1200 916.437,-1200 916.437,-1164 980.437,-1164 980.437,-1200"/>
<text text-anchor="middle" x="948.437" y="-1179.2" font-family="Courier,monospace" font-size="11.00">Handler</text>
</g>
<!-- \\Illuminate\\Foundation\\Exceptions\\Handler -->
<g id="node21" class="node"><title>\\Illuminate\\Foundation\\Exceptions\\Handler</title>
<ellipse fill="none" stroke="black" cx="548.408" cy="-396" rx="164.371" ry="18"/>
<text text-anchor="middle" x="548.408" y="-392.3" font-family="Times,serif" font-size="14.00" fill="gray">\Illuminate\Foundation\Exceptions\Handler</text>
</g>
<!-- \\App\\Exceptions\\Handler&#45;&gt;\\Illuminate\\Foundation\\Exceptions\\Handler -->
<g id="edge1" class="edge"><title>\\App\\Exceptions\\Handler&#45;&gt;\\Illuminate\\Foundation\\Exceptions\\Handler</title>
<path fill="none" stroke="black" d="M916.373,-1180.99C894.553,-1178.5 866.572,-1171.4 850.937,-1152 748.873,-1025.39 900.446,-539.455 786.937,-423 752.184,-387.345 697.84,-379.178 649.899,-380.566"/>
<polygon fill="none" stroke="black" points="649.616,-377.075 639.775,-381.001 649.916,-384.069 649.616,-377.075"/>
</g>
<!-- \\App\\Providers\\EventServiceProvider -->
<g id="node2" class="node"><title>\\App\\Providers\\EventServiceProvider</title>
<polygon fill="none" stroke="black" points="1024.44,-1120 872.437,-1120 872.437,-1084 1024.44,-1084 1024.44,-1120"/>
<text text-anchor="middle" x="948.437" y="-1099.2" font-family="Courier,monospace" font-size="11.00">EventServiceProvider</text>
</g>
<!-- \\Illuminate\\Foundation\\Support\\Providers\\EventServiceProvider -->
<g id="node23" class="node"><title>\\Illuminate\\Foundation\\Support\\Providers\\EventServiceProvider</title>
<ellipse fill="none" stroke="black" cx="548.408" cy="-342" rx="237.758" ry="18"/>
<text text-anchor="middle" x="548.408" y="-338.3" font-family="Times,serif" font-size="14.00" fill="gray">\Illuminate\Foundation\Support\Providers\EventServiceProvider</text>
</g>
<!-- \\App\\Providers\\EventServiceProvider&#45;&gt;\\Illuminate\\Foundation\\Support\\Providers\\EventServiceProvider -->
<g id="edge3" class="edge"><title>\\App\\Providers\\EventServiceProvider&#45;&gt;\\Illuminate\\Foundation\\Support\\Providers\\EventServiceProvider</title>
<path fill="none" stroke="black" d="M872.289,-1091.13C864.142,-1087.2 856.724,-1081.95 850.937,-1075 750.153,-953.925 897.053,-481.654 786.937,-369 782.015,-363.965 776.702,-359.479 771.072,-355.49"/>
<polygon fill="none" stroke="black" points="772.9,-352.504 762.605,-349.998 769.09,-358.376 772.9,-352.504"/>
</g>
<!-- \\App\\Providers\\BroadcastServiceProvider -->
<g id="node3" class="node"><title>\\App\\Providers\\BroadcastServiceProvider</title>
<polygon fill="none" stroke="black" points="1037.94,-1012 858.937,-1012 858.937,-976 1037.94,-976 1037.94,-1012"/>
<text text-anchor="middle" x="948.437" y="-991.2" font-family="Courier,monospace" font-size="11.00">BroadcastServiceProvider</text>
</g>
<!-- \\Illuminate\\Support\\ServiceProvider -->
<g id="node24" class="node"><title>\\Illuminate\\Support\\ServiceProvider</title>
<ellipse fill="none" stroke="black" cx="548.408" cy="-288" rx="139.175" ry="18"/>
<text text-anchor="middle" x="548.408" y="-284.3" font-family="Times,serif" font-size="14.00" fill="gray">\Illuminate\Support\ServiceProvider</text>
</g>
<!-- \\App\\Providers\\BroadcastServiceProvider&#45;&gt;\\Illuminate\\Support\\ServiceProvider -->
<g id="edge4" class="edge"><title>\\App\\Providers\\BroadcastServiceProvider&#45;&gt;\\Illuminate\\Support\\ServiceProvider</title>
<path fill="none" stroke="black" d="M860.345,-975.862C856.901,-973.271 853.731,-970.332 850.937,-967 757.381,-855.455 889.088,-418.731 786.937,-315 750.225,-277.721 692.07,-270.61 642.493,-272.995"/>
<polygon fill="none" stroke="black" points="642.144,-269.51 632.378,-273.616 642.574,-276.496 642.144,-269.51"/>
</g>
<!-- \\App\\Providers\\RouteServiceProvider -->
<g id="node4" class="node"><title>\\App\\Providers\\RouteServiceProvider</title>
<polygon fill="none" stroke="black" points="1024.44,-958 872.437,-958 872.437,-922 1024.44,-922 1024.44,-958"/>
<text text-anchor="middle" x="948.437" y="-937.2" font-family="Courier,monospace" font-size="11.00">RouteServiceProvider</text>
</g>
<!-- \\Illuminate\\Foundation\\Support\\Providers\\RouteServiceProvider -->
<g id="node25" class="node"><title>\\Illuminate\\Foundation\\Support\\Providers\\RouteServiceProvider</title>
<ellipse fill="none" stroke="black" cx="548.408" cy="-234" rx="238.558" ry="18"/>
<text text-anchor="middle" x="548.408" y="-230.3" font-family="Times,serif" font-size="14.00" fill="gray">\Illuminate\Foundation\Support\Providers\RouteServiceProvider</text>
</g>
<!-- \\App\\Providers\\RouteServiceProvider&#45;&gt;\\Illuminate\\Foundation\\Support\\Providers\\RouteServiceProvider -->
<g id="edge5" class="edge"><title>\\App\\Providers\\RouteServiceProvider&#45;&gt;\\Illuminate\\Foundation\\Support\\Providers\\RouteServiceProvider</title>
<path fill="none" stroke="black" d="M872.338,-929.094C864.183,-925.161 856.75,-919.931 850.937,-913 757.381,-801.455 889.088,-364.731 786.937,-261 781.996,-255.983 776.667,-251.513 771.024,-247.538"/>
<polygon fill="none" stroke="black" points="772.838,-244.544 762.538,-242.064 769.044,-250.426 772.838,-244.544"/>
</g>
<!-- \\App\\Providers\\AuthServiceProvider -->
<g id="node5" class="node"><title>\\App\\Providers\\AuthServiceProvider</title>
<polygon fill="none" stroke="black" points="1020.94,-904 875.937,-904 875.937,-868 1020.94,-868 1020.94,-904"/>
<text text-anchor="middle" x="948.437" y="-883.2" font-family="Courier,monospace" font-size="11.00">AuthServiceProvider</text>
</g>
<!-- \\Illuminate\\Foundation\\Support\\Providers\\AuthServiceProvider -->
<g id="node26" class="node"><title>\\Illuminate\\Foundation\\Support\\Providers\\AuthServiceProvider</title>
<ellipse fill="none" stroke="black" cx="548.408" cy="-180" rx="235.058" ry="18"/>
<text text-anchor="middle" x="548.408" y="-176.3" font-family="Times,serif" font-size="14.00" fill="gray">\Illuminate\Foundation\Support\Providers\AuthServiceProvider</text>
</g>
<!-- \\App\\Providers\\AuthServiceProvider&#45;&gt;\\Illuminate\\Foundation\\Support\\Providers\\AuthServiceProvider -->
<g id="edge6" class="edge"><title>\\App\\Providers\\AuthServiceProvider&#45;&gt;\\Illuminate\\Foundation\\Support\\Providers\\AuthServiceProvider</title>
<path fill="none" stroke="black" d="M875.569,-874.3C866.127,-869.943 857.476,-864.024 850.937,-856 759.379,-743.664 888.646,-310.235 786.937,-207 781.848,-201.835 776.348,-197.25 770.517,-193.189"/>
<polygon fill="none" stroke="black" points="772.061,-190.022 761.745,-187.607 768.303,-195.928 772.061,-190.022"/>
</g>
<!-- \\App\\Providers\\AppServiceProvider -->
<g id="node6" class="node"><title>\\App\\Providers\\AppServiceProvider</title>
<polygon fill="none" stroke="black" points="1017.44,-1066 879.437,-1066 879.437,-1030 1017.44,-1030 1017.44,-1066"/>
<text text-anchor="middle" x="948.437" y="-1045.2" font-family="Courier,monospace" font-size="11.00">AppServiceProvider</text>
</g>
<!-- \\App\\Providers\\AppServiceProvider&#45;&gt;\\Illuminate\\Support\\ServiceProvider -->
<g id="edge7" class="edge"><title>\\App\\Providers\\AppServiceProvider&#45;&gt;\\Illuminate\\Support\\ServiceProvider</title>
<path fill="none" stroke="black" d="M879.011,-1040.04C868.254,-1035.89 858.282,-1029.82 850.937,-1021 750.153,-899.925 897.053,-427.654 786.937,-315 750.228,-277.446 691.779,-270.419 642.048,-272.917"/>
<polygon fill="none" stroke="black" points="641.661,-269.434 631.904,-273.562 642.106,-276.42 641.661,-269.434"/>
</g>
<!-- \\App\\Http\\Middleware\\TrimStrings -->
<g id="node7" class="node"><title>\\App\\Http\\Middleware\\TrimStrings</title>
<polygon fill="none" stroke="black" points="993.937,-1496 902.937,-1496 902.937,-1460 993.937,-1460 993.937,-1496"/>
<text text-anchor="middle" x="948.437" y="-1475.2" font-family="Courier,monospace" font-size="11.00">TrimStrings</text>
</g>
<!-- \\Illuminate\\Foundation\\Http\\Middleware\\TrimStrings -->
<g id="node27" class="node"><title>\\Illuminate\\Foundation\\Http\\Middleware\\TrimStrings</title>
<ellipse fill="none" stroke="black" cx="548.408" cy="-612" rx="200.665" ry="18"/>
<text text-anchor="middle" x="548.408" y="-608.3" font-family="Times,serif" font-size="14.00" fill="gray">\Illuminate\Foundation\Http\Middleware\TrimStrings</text>
</g>
<!-- \\App\\Http\\Middleware\\TrimStrings&#45;&gt;\\Illuminate\\Foundation\\Http\\Middleware\\TrimStrings -->
<g id="edge8" class="edge"><title>\\App\\Http\\Middleware\\TrimStrings&#45;&gt;\\Illuminate\\Foundation\\Http\\Middleware\\TrimStrings</title>
<path fill="none" stroke="black" d="M902.748,-1474.39C884.735,-1470.85 864.948,-1464.03 850.937,-1451 599.552,-1217.14 557.422,-758.616 550.654,-640.361"/>
<polygon fill="none" stroke="black" points="554.145,-640.098 550.118,-630.298 547.155,-640.47 554.145,-640.098"/>
</g>
<!-- \\App\\Http\\Middleware\\RedirectIfAuthenticated -->
<g id="node8" class="node"><title>\\App\\Http\\Middleware\\RedirectIfAuthenticated</title>
<polygon fill="none" stroke="black" points="1034.44,-1442 862.437,-1442 862.437,-1406 1034.44,-1406 1034.44,-1442"/>
<text text-anchor="middle" x="948.437" y="-1421.2" font-family="Courier,monospace" font-size="11.00">RedirectIfAuthenticated</text>
</g>
<!-- \\App\\Http\\Middleware\\EncryptCookies -->
<g id="node9" class="node"><title>\\App\\Http\\Middleware\\EncryptCookies</title>
<polygon fill="none" stroke="black" points="1003.94,-1388 892.937,-1388 892.937,-1352 1003.94,-1352 1003.94,-1388"/>
<text text-anchor="middle" x="948.437" y="-1367.2" font-family="Courier,monospace" font-size="11.00">EncryptCookies</text>
</g>
<!-- \\Illuminate\\Cookie\\Middleware\\EncryptCookies -->
<g id="node28" class="node"><title>\\Illuminate\\Cookie\\Middleware\\EncryptCookies</title>
<ellipse fill="none" stroke="black" cx="548.408" cy="-558" rx="181.968" ry="18"/>
<text text-anchor="middle" x="548.408" y="-554.3" font-family="Times,serif" font-size="14.00" fill="gray">\Illuminate\Cookie\Middleware\EncryptCookies</text>
</g>
<!-- \\App\\Http\\Middleware\\EncryptCookies&#45;&gt;\\Illuminate\\Cookie\\Middleware\\EncryptCookies -->
<g id="edge9" class="edge"><title>\\App\\Http\\Middleware\\EncryptCookies&#45;&gt;\\Illuminate\\Cookie\\Middleware\\EncryptCookies</title>
<path fill="none" stroke="black" d="M892.936,-1366.39C877.139,-1362.59 861.36,-1355.6 850.937,-1343 743.19,-1212.74 904.726,-706.25 786.937,-585 753.393,-550.471 701.485,-541.689 654.739,-542.41"/>
<polygon fill="none" stroke="black" points="654.432,-538.918 644.542,-542.716 654.642,-545.914 654.432,-538.918"/>
</g>
<!-- \\App\\Http\\Middleware\\VerifyCsrfToken -->
<g id="node10" class="node"><title>\\App\\Http\\Middleware\\VerifyCsrfToken</title>
<polygon fill="none" stroke="black" points="1007.44,-1334 889.437,-1334 889.437,-1298 1007.44,-1298 1007.44,-1334"/>
<text text-anchor="middle" x="948.437" y="-1313.2" font-family="Courier,monospace" font-size="11.00">VerifyCsrfToken</text>
</g>
<!-- \\Illuminate\\Foundation\\Http\\Middleware\\VerifyCsrfToken -->
<g id="node29" class="node"><title>\\Illuminate\\Foundation\\Http\\Middleware\\VerifyCsrfToken</title>
<ellipse fill="none" stroke="black" cx="548.408" cy="-504" rx="218.261" ry="18"/>
<text text-anchor="middle" x="548.408" y="-500.3" font-family="Times,serif" font-size="14.00" fill="gray">\Illuminate\Foundation\Http\Middleware\VerifyCsrfToken</text>
</g>
<!-- \\App\\Http\\Middleware\\VerifyCsrfToken&#45;&gt;\\Illuminate\\Foundation\\Http\\Middleware\\VerifyCsrfToken -->
<g id="edge10" class="edge"><title>\\App\\Http\\Middleware\\VerifyCsrfToken&#45;&gt;\\Illuminate\\Foundation\\Http\\Middleware\\VerifyCsrfToken</title>
<path fill="none" stroke="black" d="M889.362,-1314.6C874.861,-1311.37 860.683,-1305.22 850.937,-1294 739.361,-1165.54 905.464,-653.076 786.937,-531 780.755,-524.633 773.948,-519.141 766.665,-514.423"/>
<polygon fill="none" stroke="black" points="768.292,-511.319 757.904,-509.233 764.724,-517.341 768.292,-511.319"/>
</g>
<!-- \\App\\Http\\Controllers\\Auth\\RegisterController -->
<g id="node11" class="node"><title>\\App\\Http\\Controllers\\Auth\\RegisterController</title>
<polygon fill="none" stroke="black" points="1017.44,-1792 879.437,-1792 879.437,-1756 1017.44,-1756 1017.44,-1792"/>
<text text-anchor="middle" x="948.437" y="-1771.2" font-family="Courier,monospace" font-size="11.00">RegisterController</text>
</g>
<!-- \\App\\Http\\Controllers\\Controller -->
<g id="node15" class="node"><title>\\App\\Http\\Controllers\\Controller</title>
<polygon fill="none" stroke="black" points="590.408,-1684 506.408,-1684 506.408,-1648 590.408,-1648 590.408,-1684"/>
<text text-anchor="middle" x="548.408" y="-1663.2" font-family="Courier,monospace" font-size="11.00">Controller</text>
</g>
<!-- \\App\\Http\\Controllers\\Auth\\RegisterController&#45;&gt;\\App\\Http\\Controllers\\Controller -->
<g id="edge13" class="edge"><title>\\App\\Http\\Controllers\\Auth\\RegisterController&#45;&gt;\\App\\Http\\Controllers\\Controller</title>
<path fill="none" stroke="black" d="M880.815,-1755.92C801.765,-1734.47 671.711,-1699.19 600.295,-1679.81"/>
<polygon fill="none" stroke="black" points="601.186,-1676.42 590.618,-1677.18 599.353,-1683.18 601.186,-1676.42"/>
</g>
<!-- \\App\\Http\\Controllers\\Auth\\ResetPasswordController -->
<g id="node12" class="node"><title>\\App\\Http\\Controllers\\Auth\\ResetPasswordController</title>
<polygon fill="none" stroke="black" points="1034.44,-1738 862.437,-1738 862.437,-1702 1034.44,-1702 1034.44,-1738"/>
<text text-anchor="middle" x="948.437" y="-1717.2" font-family="Courier,monospace" font-size="11.00">ResetPasswordController</text>
</g>
<!-- \\App\\Http\\Controllers\\Auth\\ResetPasswordController&#45;&gt;\\App\\Http\\Controllers\\Controller -->
<g id="edge14" class="edge"><title>\\App\\Http\\Controllers\\Auth\\ResetPasswordController&#45;&gt;\\App\\Http\\Controllers\\Controller</title>
<path fill="none" stroke="black" d="M862.049,-1708.42C782.583,-1697.63 666.766,-1681.92 600.685,-1672.96"/>
<polygon fill="none" stroke="black" points="600.9,-1669.45 590.52,-1671.58 599.959,-1676.39 600.9,-1669.45"/>
</g>
<!-- \\App\\Http\\Controllers\\Auth\\ForgotPasswordController -->
<g id="node13" class="node"><title>\\App\\Http\\Controllers\\Auth\\ForgotPasswordController</title>
<polygon fill="none" stroke="black" points="1037.94,-1684 858.937,-1684 858.937,-1648 1037.94,-1648 1037.94,-1684"/>
<text text-anchor="middle" x="948.437" y="-1663.2" font-family="Courier,monospace" font-size="11.00">ForgotPasswordController</text>
</g>
<!-- \\App\\Http\\Controllers\\Auth\\ForgotPasswordController&#45;&gt;\\App\\Http\\Controllers\\Controller -->
<g id="edge15" class="edge"><title>\\App\\Http\\Controllers\\Auth\\ForgotPasswordController&#45;&gt;\\App\\Http\\Controllers\\Controller</title>
<path fill="none" stroke="black" d="M858.607,-1666C779.225,-1666 665.692,-1666 600.577,-1666"/>
<polygon fill="none" stroke="black" points="600.555,-1662.5 590.555,-1666 600.555,-1669.5 600.555,-1662.5"/>
</g>
<!-- \\App\\Http\\Controllers\\Auth\\LoginController -->
<g id="node14" class="node"><title>\\App\\Http\\Controllers\\Auth\\LoginController</title>
<polygon fill="none" stroke="black" points="1007.44,-1630 889.437,-1630 889.437,-1594 1007.44,-1594 1007.44,-1630"/>
<text text-anchor="middle" x="948.437" y="-1609.2" font-family="Courier,monospace" font-size="11.00">LoginController</text>
</g>
<!-- \\App\\Http\\Controllers\\Auth\\LoginController&#45;&gt;\\App\\Http\\Controllers\\Controller -->
<g id="edge16" class="edge"><title>\\App\\Http\\Controllers\\Auth\\LoginController&#45;&gt;\\App\\Http\\Controllers\\Controller</title>
<path fill="none" stroke="black" d="M889.133,-1619.91C811.282,-1630.47 674.612,-1649.01 600.567,-1659.06"/>
<polygon fill="none" stroke="black" points="599.986,-1655.61 590.547,-1660.42 600.927,-1662.54 599.986,-1655.61"/>
</g>
<!-- \\Illuminate\\Routing\\Controller -->
<g id="node31" class="node"><title>\\Illuminate\\Routing\\Controller</title>
<ellipse fill="none" stroke="black" cx="118.939" cy="-1666" rx="118.879" ry="18"/>
<text text-anchor="middle" x="118.939" y="-1662.3" font-family="Times,serif" font-size="14.00" fill="gray">\Illuminate\Routing\Controller</text>
</g>
<!-- \\App\\Http\\Controllers\\Controller&#45;&gt;\\Illuminate\\Routing\\Controller -->
<g id="edge12" class="edge"><title>\\App\\Http\\Controllers\\Controller&#45;&gt;\\Illuminate\\Routing\\Controller</title>
<path fill="none" stroke="black" d="M506.032,-1666C447.019,-1666 336.1,-1666 248.238,-1666"/>
<polygon fill="none" stroke="black" points="248.187,-1662.5 238.187,-1666 248.187,-1669.5 248.187,-1662.5"/>
</g>
<!-- \\App\\Http\\Controllers\\ContactController -->
<g id="node16" class="node"><title>\\App\\Http\\Controllers\\ContactController</title>
<polygon fill="none" stroke="black" points="1013.94,-1576 882.937,-1576 882.937,-1540 1013.94,-1540 1013.94,-1576"/>
<text text-anchor="middle" x="948.437" y="-1555.2" font-family="Courier,monospace" font-size="11.00">ContactController</text>
</g>
<!-- \\App\\Http\\Controllers\\ContactController&#45;&gt;\\App\\Http\\Controllers\\Controller -->
<g id="edge17" class="edge"><title>\\App\\Http\\Controllers\\ContactController&#45;&gt;\\App\\Http\\Controllers\\Controller</title>
<path fill="none" stroke="black" d="M882.747,-1573.82C872.106,-1576.5 861.203,-1579.29 850.937,-1582 762.766,-1605.24 660.639,-1634.1 600.729,-1651.23"/>
<polygon fill="none" stroke="black" points="599.417,-1647.97 590.766,-1654.08 601.343,-1654.7 599.417,-1647.97"/>
</g>
<!-- \\App\\Http\\Kernel -->
<g id="node17" class="node"><title>\\App\\Http\\Kernel</title>
<polygon fill="none" stroke="black" points="976.937,-1280 919.937,-1280 919.937,-1244 976.937,-1244 976.937,-1280"/>
<text text-anchor="middle" x="948.437" y="-1259.2" font-family="Courier,monospace" font-size="11.00">Kernel</text>
</g>
<!-- \\Illuminate\\Foundation\\Http\\Kernel -->
<g id="node30" class="node"><title>\\Illuminate\\Foundation\\Http\\Kernel</title>
<ellipse fill="none" stroke="black" cx="548.408" cy="-450" rx="136.476" ry="18"/>
<text text-anchor="middle" x="548.408" y="-446.3" font-family="Times,serif" font-size="14.00" fill="gray">\Illuminate\Foundation\Http\Kernel</text>
</g>
<!-- \\App\\Http\\Kernel&#45;&gt;\\Illuminate\\Foundation\\Http\\Kernel -->
<g id="edge11" class="edge"><title>\\App\\Http\\Kernel&#45;&gt;\\Illuminate\\Foundation\\Http\\Kernel</title>
<path fill="none" stroke="black" d="M919.537,-1261.34C897.316,-1259.2 867.312,-1252.38 850.937,-1232 745.457,-1100.75 904.283,-597.754 786.937,-477 750,-438.991 690.808,-432.184 640.755,-434.907"/>
<polygon fill="none" stroke="black" points="640.291,-431.431 630.55,-435.599 640.764,-438.415 640.291,-431.431"/>
</g>
<!-- \\App\\Console\\Kernel -->
<g id="node18" class="node"><title>\\App\\Console\\Kernel</title>
<polygon fill="none" stroke="black" points="976.937,-824 919.937,-824 919.937,-788 976.937,-788 976.937,-824"/>
<text text-anchor="middle" x="948.437" y="-803.2" font-family="Courier,monospace" font-size="11.00">Kernel</text>
</g>
<!-- \\Illuminate\\Foundation\\Console\\Kernel -->
<g id="node32" class="node"><title>\\Illuminate\\Foundation\\Console\\Kernel</title>
<ellipse fill="none" stroke="black" cx="548.408" cy="-126" rx="149.473" ry="18"/>
<text text-anchor="middle" x="548.408" y="-122.3" font-family="Times,serif" font-size="14.00" fill="gray">\Illuminate\Foundation\Console\Kernel</text>
</g>
<!-- \\App\\Console\\Kernel&#45;&gt;\\Illuminate\\Foundation\\Console\\Kernel -->
<g id="edge18" class="edge"><title>\\App\\Console\\Kernel&#45;&gt;\\Illuminate\\Foundation\\Console\\Kernel</title>
<path fill="none" stroke="black" d="M919.631,-805.261C897.467,-803.074 867.493,-796.23 850.937,-776 762.791,-668.299 884.813,-251.941 786.937,-153 751.103,-116.777 695.012,-109.087 646.333,-110.893"/>
<polygon fill="none" stroke="black" points="645.877,-107.412 636.068,-111.416 646.233,-114.403 645.877,-107.412"/>
</g>
<!-- \\App\\Mail\\OrderShipped -->
<g id="node19" class="node"><title>\\App\\Mail\\OrderShipped</title>
<polygon fill="none" stroke="black" points="997.437,-744 899.437,-744 899.437,-708 997.437,-708 997.437,-744"/>
<text text-anchor="middle" x="948.437" y="-723.2" font-family="Courier,monospace" font-size="11.00">OrderShipped</text>
</g>
<!-- \\Illuminate\\Mail\\Mailable -->
<g id="node33" class="node"><title>\\Illuminate\\Mail\\Mailable</title>
<ellipse fill="none" stroke="black" cx="548.408" cy="-72" rx="103.182" ry="18"/>
<text text-anchor="middle" x="548.408" y="-68.3" font-family="Times,serif" font-size="14.00" fill="gray">\Illuminate\Mail\Mailable</text>
</g>
<!-- \\App\\Mail\\OrderShipped&#45;&gt;\\Illuminate\\Mail\\Mailable -->
<g id="edge19" class="edge"><title>\\App\\Mail\\OrderShipped&#45;&gt;\\Illuminate\\Mail\\Mailable</title>
<path fill="none" stroke="black" d="M899.324,-726.221C881.652,-723.734 863.029,-717.621 850.937,-704 761.181,-602.898 882.16,-194.969 786.937,-99 746.856,-58.6058 681.573,-53.7356 629.581,-57.9243"/>
<polygon fill="none" stroke="black" points="629.004,-54.4628 619.371,-58.875 629.653,-61.4327 629.004,-54.4628"/>
</g>
<!-- \\App\\User -->
<g id="node20" class="node"><title>\\App\\User</title>
<polygon fill="none" stroke="black" points="975.437,-690 921.437,-690 921.437,-654 975.437,-654 975.437,-690"/>
<text text-anchor="middle" x="948.437" y="-669.2" font-family="Courier,monospace" font-size="11.00">User</text>
</g>
<!-- \\Illuminate\\Foundation\\Auth\\User -->
<g id="node22" class="node"><title>\\Illuminate\\Foundation\\Auth\\User</title>
<ellipse fill="none" stroke="black" cx="548.408" cy="-18" rx="131.077" ry="18"/>
<text text-anchor="middle" x="548.408" y="-14.3" font-family="Times,serif" font-size="14.00" fill="gray">\Illuminate\Foundation\Auth\User</text>
</g>
<!-- \\App\\User&#45;&gt;\\Illuminate\\Foundation\\Auth\\User -->
<g id="edge2" class="edge"><title>\\App\\User&#45;&gt;\\Illuminate\\Foundation\\Auth\\User</title>
<path fill="none" stroke="black" d="M945.529,-653.85C935.261,-559.805 883.412,-129.052 786.937,-45 750.349,-13.1237 697.635,-4.73252 651.156,-5.0234"/>
<polygon fill="none" stroke="black" points="650.964,-1.52639 641.035,-5.22181 651.102,-8.52505 650.964,-1.52639"/>
</g>
</g>
</svg>
